<svg width="14" height="14" viewBox="0 0 14 14" fill="none" xmlns="http://www.w3.org/2000/svg">
<path d="M11.6667 6.61112H7.38891V2.33335C7.38891 2.23021 7.34794 2.13129 7.27501 2.05836C7.20208 1.98543 7.10316 1.94446 7.00002 1.94446C6.89688 1.94446 6.79797 1.98543 6.72504 2.05836C6.65211 2.13129 6.61114 2.23021 6.61114 2.33335V6.61112H2.33336C2.23022 6.61112 2.1313 6.6521 2.05837 6.72503C1.98544 6.79796 1.94447 6.89687 1.94447 7.00001C1.94255 7.05056 1.95149 7.10092 1.97068 7.14772C1.98987 7.19451 2.01887 7.23665 2.05572 7.27129C2.09257 7.30594 2.13642 7.33227 2.18432 7.34854C2.23221 7.3648 2.28303 7.37061 2.33336 7.36557H6.61114V11.6667C6.61114 11.7698 6.65211 11.8687 6.72504 11.9417C6.79797 12.0146 6.89688 12.0556 7.00002 12.0556C7.10316 12.0556 7.20208 12.0146 7.27501 11.9417C7.34794 11.8687 7.38891 11.7698 7.38891 11.6667V7.3889H11.6667C11.7698 7.3889 11.8687 7.34793 11.9417 7.275C12.0146 7.20207 12.0556 7.10315 12.0556 7.00001C12.0556 6.89687 12.0146 6.79796 11.9417 6.72503C11.8687 6.6521 11.7698 6.61112 11.6667 6.61112Z" fill="#626262"/>
</svg>
