<svg width="9" height="9" viewBox="0 0 9 9" fill="none" xmlns="http://www.w3.org/2000/svg">
<path d="M8.43749 3.00377L7.87499 1.31627C7.85542 1.25805 7.81733 1.20784 7.76655 1.17331C7.71576 1.13878 7.65507 1.12182 7.59374 1.12502H1.40624C1.34491 1.12182 1.28421 1.13878 1.23343 1.17331C1.18264 1.20784 1.14456 1.25805 1.12499 1.31627L0.562487 3.00377C0.558435 3.03363 0.558435 3.0639 0.562487 3.09377V4.78127C0.562487 4.85586 0.592119 4.9274 0.644863 4.98014C0.697608 5.03288 0.769145 5.06252 0.843737 5.06252H1.12499V7.87502H1.68749V5.06252H3.37499V7.87502H7.87499V5.06252H8.15624C8.23083 5.06252 8.30237 5.03288 8.35511 4.98014C8.40786 4.9274 8.43749 4.85586 8.43749 4.78127V3.09377C8.44154 3.0639 8.44154 3.03363 8.43749 3.00377V3.00377ZM7.31249 7.31252H3.93749V5.06252H7.31249V7.31252ZM7.87499 4.50002H6.74999V3.37502H6.18749V4.50002H4.78124V3.37502H4.21874V4.50002H2.81249V3.37502H2.24999V4.50002H1.12499V3.13877L1.60874 1.68752H7.39124L7.87499 3.13877V4.50002Z" fill="#2C2C2C"/>
</svg>
