<svg width="7" height="6" viewBox="0 0 7 6" fill="none" xmlns="http://www.w3.org/2000/svg">
<path d="M5.7975 1.2353L4.76628 0.204077C4.63169 0.0776564 4.45533 0.0051183 4.27074 0.000260725C4.08615 -0.00459685 3.90622 0.0585652 3.76516 0.177732L0.37794 3.56496C0.256288 3.68764 0.180542 3.84843 0.163416 4.02035L0.00158182 5.58976C-0.00348812 5.64489 0.00366471 5.70045 0.0225304 5.7525C0.041396 5.80454 0.07151 5.85178 0.110726 5.89085C0.145893 5.92573 0.187599 5.95333 0.233454 5.97206C0.279308 5.99079 0.328409 6.00028 0.37794 5.99999H0.411812L1.98123 5.85698C2.15315 5.83985 2.31394 5.76411 2.43662 5.64245L5.82384 2.25523C5.95531 2.11634 6.02636 1.931 6.02142 1.73982C6.01649 1.54864 5.93596 1.36721 5.7975 1.2353ZM4.51788 2.49233L3.50924 1.48369L4.24314 0.730978L5.2706 1.75844L4.51788 2.49233Z" fill="#5E5E5E"/>
</svg>
