<svg width="8" height="8" viewBox="0 0 8 8" fill="none" xmlns="http://www.w3.org/2000/svg">
<path d="M6.91875 1.79844L6.08672 0.967188C6.02803 0.908237 5.95827 0.861464 5.88144 0.829555C5.80462 0.797646 5.72225 0.78123 5.63906 0.78125C5.46953 0.78125 5.31016 0.847656 5.19063 0.967188L4.29531 1.8625C4.23636 1.92119 4.18959 1.99095 4.15768 2.06778C4.12577 2.1446 4.10936 2.22697 4.10938 2.31016C4.10938 2.47969 4.17578 2.63906 4.29531 2.75859L4.95 3.41328C4.79675 3.75106 4.58369 4.05835 4.32109 4.32031C4.05916 4.58355 3.7519 4.79738 3.41406 4.95156L2.75938 4.29688C2.70068 4.23792 2.63092 4.19115 2.5541 4.15924C2.47728 4.12733 2.39491 4.11092 2.31172 4.11094C2.14219 4.11094 1.98281 4.17734 1.86328 4.29688L0.967188 5.19141C0.908165 5.25021 0.861352 5.3201 0.829441 5.39706C0.797531 5.47402 0.781153 5.55653 0.78125 5.63984C0.78125 5.80938 0.847657 5.96875 0.967188 6.08828L1.79766 6.91875C1.98828 7.11016 2.25156 7.21875 2.52188 7.21875C2.57891 7.21875 2.63359 7.21406 2.6875 7.20469C3.74063 7.03125 4.78516 6.47109 5.62813 5.62891C6.47031 4.7875 7.02969 3.74375 7.20547 2.6875C7.25859 2.36484 7.15156 2.03281 6.91875 1.79844Z" fill="#5E5E5E"/>
</svg>
