<svg width="17" height="16" viewBox="0 0 17 16" fill="none" xmlns="http://www.w3.org/2000/svg">
<path d="M13.9581 12.86L11.6756 10.6C12.4121 9.66831 12.8116 8.51777 12.8101 7.33334C12.8101 6.2785 12.4952 5.24736 11.9051 4.37029C11.315 3.49323 10.4762 2.80965 9.49492 2.40598C8.51361 2.00231 7.43381 1.89669 6.39206 2.10248C5.35031 2.30827 4.3934 2.81622 3.64234 3.5621C2.89128 4.30798 2.37981 5.25829 2.17259 6.29285C1.96537 7.32742 2.07172 8.39977 2.47819 9.37431C2.88467 10.3489 3.573 11.1818 4.45615 11.7678C5.3393 12.3539 6.37761 12.6667 7.43977 12.6667C8.63243 12.6681 9.79095 12.2713 10.7291 11.54L13.0048 13.8067C13.0672 13.8692 13.1415 13.9188 13.2233 13.9526C13.3051 13.9864 13.3928 14.0039 13.4814 14.0039C13.5701 14.0039 13.6578 13.9864 13.7396 13.9526C13.8214 13.9188 13.8957 13.8692 13.9581 13.8067C14.021 13.7447 14.0709 13.671 14.105 13.5897C14.1391 13.5085 14.1566 13.4213 14.1566 13.3333C14.1566 13.2453 14.1391 13.1582 14.105 13.077C14.0709 12.9957 14.021 12.922 13.9581 12.86V12.86ZM3.41199 7.33334C3.41199 6.54221 3.64822 5.76885 4.09079 5.11106C4.53337 4.45326 5.16243 3.94057 5.89841 3.63782C6.63439 3.33507 7.44424 3.25585 8.22555 3.41019C9.00686 3.56454 9.72454 3.9455 10.2878 4.50491C10.8511 5.06432 11.2347 5.77705 11.3902 6.55297C11.5456 7.3289 11.4658 8.13317 11.161 8.86407C10.8561 9.59497 10.3398 10.2197 9.67748 10.6592C9.01512 11.0987 8.23639 11.3333 7.43977 11.3333C6.37154 11.3333 5.34706 10.9119 4.5917 10.1618C3.83635 9.41162 3.41199 8.3942 3.41199 7.33334Z" fill="#C9C9C9"/>
</svg>
